<svg viewBox="0 0 512 512" xml:space="preserve" xmlns="http://www.w3.org/2000/svg"><path clip-rule="evenodd" d="m225.681 285.498.35.35c3.094 3.084 6.43 5.584 10.009 7.505a39.184 39.184 0 0 0 9.544 3.725v25.716h-59.067c-.428.003-.854.003-1.28 0h-1.455c-6.036-.139-11.644-1.302-16.819-3.49l58.718-33.806zm40.678-107.928c4.695 2.551 9.078 5.849 13.152 9.891 3.846 3.839 7.027 7.95 9.545 12.336a26.322 26.322 0 0 1 6.633-3.899c3.299-1.354 6.885-2.032 10.766-2.036 7.818-.02 14.49 2.715 20.021 8.204.318.317.629.647.93.989l-41.084 23.621a2.795 2.795 0 0 0-.234-.349 2.897 2.897 0 0 1-.348-.175 44.06 44.06 0 0 0-5.588-4.713c-4.238-3.007-8.834-5.12-13.793-6.342V177.57zm-136.002 18.618c-5.708 5.686-12.207 9.409-19.495 11.172v97.337c7.246 1.757 13.706 5.426 19.379 10.998.068.062.146.118.233.173.107.093.224.19.349.291l18.04-10.414c-7.078-8.423-10.629-18.295-10.649-29.613.03-10.884 3.328-20.426 9.893-28.626a57.527 57.527 0 0 1 3.841-4.306c8.632-8.594 18.952-13.111 30.962-13.557a78.01 78.01 0 0 1 0-2.269v-1.339l32.298 18.618a40.393 40.393 0 0 0-1.048 5.644 44.688 44.688 0 0 0-.465 5.76c.024 4.015.528 7.836 1.513 11.463l-66.228 38.225a43.445 43.445 0 0 0 3.027 3.316c.496.5 1 .984 1.513 1.454 4.102 3.812 8.582 6.721 13.442 8.728l-25.896 14.952c1.008 3.594 1.552 7.375 1.63 11.346v.234c-.079 3.918-.604 7.643-1.572 11.17l84.501 48.698c.133-.116.27-.232.407-.349l.058-.059c5.7-5.625 12.219-9.329 19.554-11.113v-71.389h20.717v-25.716c7.268-1.764 13.75-5.486 19.438-11.171.09-.048.188-.086.291-.116.092-.12.189-.236.291-.35l58.719 33.921c-5.559 2.324-11.611 3.488-18.158 3.49h-60.58v71.33c7.266 1.797 13.744 5.502 19.438 11.113.07.043.146.082.234.116.102.106.199.22.291.35l84.555-48.641c-1.023-3.647-1.545-7.489-1.57-11.521.025-4.068.529-7.948 1.514-11.637l-25.723-14.661c4.367-1.853 8.441-4.411 12.223-7.68a48.883 48.883 0 0 0 2.674-2.502 56.896 56.896 0 0 0 3.086-3.316l-66.342-38.341c.949-3.527 1.453-7.272 1.514-11.229v-.232c-.014-.709-.033-1.407-.061-2.095-.191-3.182-.676-6.228-1.453-9.135l38.002-21.877c-.063 2.479-.41 4.845-1.049 7.098 10.039 1.364 18.809 5.786 26.303 13.267 4.195 4.169 7.438 8.746 9.719 13.73 2.65 5.838 3.969 12.237 3.957 19.201.012 11.313-3.479 21.187-10.475 29.613l17.926 10.298c.16-.143.318-.279.465-.406v-.06c5.695-5.593 12.174-9.277 19.438-11.055v-97.104c-7.268-1.794-13.748-5.479-19.438-11.055v-.058c-.133-.095-.27-.192-.406-.291l-46.439 26.821v-.814c.016-3.875-.645-7.463-1.98-10.764-1.219-2.995-3.002-5.749-5.354-8.262l43.414-24.96c-.984-3.649-1.488-7.489-1.514-11.521.025-3.99.529-7.792 1.514-11.403l-84.617-48.755c-.117.119-.236.236-.348.349-5.709 5.665-12.207 9.37-19.496 11.113v59.694a52.294 52.294 0 0 0-12.919-5.004 56.117 56.117 0 0 0-7.798-1.279V117.93c-7.357-1.789-13.896-5.532-19.611-11.228l-.35-.349-84.559 48.755c.969 3.531 1.493 7.254 1.572 11.172v.231c-.079 3.997-.623 7.798-1.63 11.405l46.499 26.646c2.73-6.214 6.707-11.916 11.93-17.106a69.342 69.342 0 0 1 4.189-3.84c10.171-8.462 22.101-12.69 35.79-12.683 2.078.008 4.115.124 6.11.349v43.811a39.428 39.428 0 0 0-10.708 4.306c-3.125 1.791-6.055 4.041-8.787 6.749a2.264 2.264 0 0 1-.291.175 7.347 7.347 0 0 1-.232.291l-38.059-21.993a54.828 54.828 0 0 0-3.201 9.6c-.853 3.762-1.318 7.68-1.396 11.754l-52.319-30.081a.578.578 0 0 1-.115.175.447.447 0 0 0-.122.119zm95.615-149.061.116-.058c6.775-6.69 14.709-10.646 23.802-11.869 1.963-.265 3.98-.4 6.053-.407 11.616.025 21.567 4.117 29.854 12.276l.115.058c8.129 8.182 12.262 18.073 12.396 29.672.002.084.002.181 0 .291-.098 3.972-.662 7.753-1.688 11.346l84.5 48.64.465-.349v-.175c8.27-8.109 18.262-12.163 29.971-12.159 11.596-.014 21.529 4.039 29.795 12.159l.117.232c3.123 3.127 5.662 6.502 7.623 10.124 3.078 5.874 4.65 12.39 4.713 19.549.002.077.002.155 0 .232-.123 11.642-4.256 21.513-12.393 29.615-5.721 5.717-12.24 9.46-19.555 11.229v96.988c7.291 1.743 13.791 5.428 19.494 11.055l.117.118c8.107 8.2 12.223 18.111 12.336 29.729.002.057.002.116 0 .175-.068 6.587-1.426 12.601-4.074 18.037-2.004 4.223-4.779 8.1-8.318 11.636-8.285 8.264-18.234 12.396-29.855 12.394-11.715-.007-21.703-4.139-29.971-12.394l-.406-.35-84.559 48.7c1.025 3.555 1.59 7.336 1.688 11.345.002.109.002.205 0 .291-.143 11.642-4.295 21.512-12.453 29.614-6.988 6.995-15.174 11.027-24.559 12.102a43.257 43.257 0 0 1-5.354.291c-11.694-.009-21.665-4.139-29.912-12.393-8.171-8.135-12.265-18.046-12.279-29.732.006-4.031.491-7.87 1.455-11.518l-84.384-48.7a3.604 3.604 0 0 1-.349.35.417.417 0 0 0-.117.116c-8.301 8.266-18.272 12.396-29.912 12.394-11.713-.01-21.704-4.139-29.971-12.394-4.156-4.146-7.239-8.762-9.252-13.848-1.997-4.88-3.006-10.195-3.027-15.941.025-11.646 4.118-21.572 12.279-29.788l.059-.116c5.7-5.586 12.217-9.252 19.554-10.998V207.36c-7.359-1.771-13.896-5.495-19.613-11.172-8.17-8.134-12.263-18.044-12.279-29.73.002-7.532 1.689-14.358 5.064-20.479 1.895-3.353 4.3-6.493 7.215-9.426l.059-.116c8.25-8.11 18.223-12.164 29.912-12.16 11.598-.013 21.529 4.041 29.796 12.16.068.101.146.197.233.291.146.111.281.227.406.349l84.326-48.64c-.964-3.626-1.449-7.448-1.455-11.461.007-11.664 4.081-21.614 12.222-29.849z" fill="#d45555" fill-rule="evenodd" class="fill-333333"></path></svg>