<?xml version="1.0" encoding="UTF-8"?>
<svg id="Capa_1" data-name="Capa 1" xmlns="http://www.w3.org/2000/svg" viewBox="0 0 665.15 253.75">
  <defs>
    <style>
      .cls-1 {
        fill: #1d1d1d;
      }

      .cls-1, .cls-2 {
        stroke-width: 0px;
      }

      .cls-2 {
        fill: #6b5cff;
      }
    </style>
  </defs>
  <path class="cls-2" d="M418.26,164.82c.7-2.48,1.77-4.91,2.03-7.44,1.71-16.39,3.2-32.8,4.86-49.2.62-6.16,1.4-12.19,9.78-12.62,9.06-.46,11.93,2.28,11.01,11.47-1.81,17.96-3.64,35.91-5.65,53.85-.49,4.39-1.27,8.85-2.65,13.04-3.48,10.58-10.04,14.6-21.65,13.89-9.1-.56-14.72-5.25-16.52-15.88-2-11.83-2.81-23.87-4.12-35.82-.3-2.7-.5-5.42-.75-8.13-.67,0-1.34,0-2.01,0-.77,7.31-1.46,14.62-2.34,21.91-.98,8.04-1.62,16.17-3.35,24.05-2.04,9.29-7.6,13.45-16.56,13.9-10.47.52-17.11-2.71-19.96-11.56-2.46-7.63-3.76-15.73-4.72-23.73-1.84-15.32-3.07-30.72-4.54-46.08-.47-4.9-.74-9.64,5.9-10.74,7.87-1.3,12.82.81,13.72,7.67,2.27,17.36,3.74,34.83,5.6,52.25.32,2.98.98,5.91,1.49,8.87.74.09,1.48.17,2.22.26.64-2.41,1.62-4.78,1.88-7.23,1.59-15.09,2.85-30.22,4.57-45.29,1.2-10.44,5.06-14.91,12.99-16.27,12.22-2.1,19.48,3.22,20.97,16.15,1.68,14.55,2.74,29.18,4.15,43.76.28,2.94.93,5.84,1.41,8.76.75.06,1.5.12,2.25.18Z"/>
  <path class="cls-2" d="M262.15,143.85c7.93,11.9,15.56,23.09,22.9,34.46,4.97,7.71,4,8.65-5,9.56-11.86,1.19-20.02-3.11-25.82-13.48-4.33-7.73-9.95-14.73-14.44-22.39-2.96-5.03-6.32-7.76-12.48-7.06-5.64.63-7.69-2.2-5.62-7.73,1.01-2.69,1.84-5.45,2.52-8.24,1.17-4.82,4.09-6.9,9.05-6.75,5.22.16,10.48.2,15.68-.24,8.39-.72,12.4-5.39,12.64-14.02.26-9.28-3.52-14.12-12.02-15.4-12.89-1.94-12.49-1.83-8.82-14.88,1.89-6.71,5.16-8.51,11.79-7.82,18.32,1.89,29.92,10.75,32.55,26.4,3.26,19.39.85,37.91-22.93,47.59Z"/>
  <path class="cls-2" d="M182.63,192.14c-8.36-.07-10.19-2.35-7.87-9.7,11.43-36.11,22.95-72.19,34.54-108.24,2.63-8.17,9.52-11.67,17.83-9.5,5.86,1.53,4.32,5.55,3.11,9.35-6.77,21.15-13.57,42.29-20.38,63.42-4.8,14.92-9.82,29.77-14.36,44.77-2.15,7.09-6.14,10.71-12.86,9.89Z"/>
  <path class="cls-2" d="M484.93,142.42c0,11.77.18,23.54-.06,35.31-.17,8.5-2.14,10.02-11.26,10.1-9.77.08-12.06-1.48-12.13-10.04-.21-24.06-.21-48.13,0-72.19.07-8.61,2.22-10.08,12.08-10.05,9.18.03,11.15,1.53,11.32,10,.24,12.29.06,24.59.06,36.88Z"/>
  <path class="cls-2" d="M325.4,142.41c0,11.78.18,23.56-.06,35.33-.17,8.39-2.24,10.01-11.31,10.09-9.85.09-12.04-1.4-12.11-9.98-.22-24.07-.22-48.15-.04-72.23.06-8.47,2.15-10.01,11.25-10.08,9.84-.07,12.04,1.49,12.21,9.97.24,12.3.06,24.6.06,36.9Z"/>
  <path class="cls-2" d="M124.54,138.92c9.26,4.56,18.43,9.32,27.82,13.6,6.83,3.12,9.01,8.28,8,15.24-.63,4.36-3.07,5.97-7.16,3.93-13.09-6.52-26.44-12.59-39.1-19.86-11.08-6.37-11.25-21.48-.28-27.82,12.86-7.44,26.44-13.62,39.77-20.24,4.34-2.15,6.34.15,6.83,4.32.78,6.61-1.16,11.7-7.67,14.72-9.43,4.37-18.7,9.07-28.04,13.63-.06.83-.12,1.65-.18,2.48Z"/>
  <path class="cls-2" d="M543.06,137.76c-11.34-5.6-20.37-10.61-29.84-14.58-7.68-3.22-8.68-8.87-8.03-15.87.4-4.31,2.53-5.52,6.33-3.63,13.31,6.64,26.92,12.76,39.77,20.19,11,6.36,11,21.65.16,27.78-12.93,7.31-26.49,13.5-39.79,20.16-3.71,1.86-5.99.95-6.45-3.44-.73-6.99.29-12.69,7.9-15.96,9.45-4.05,18.51-9.01,29.94-14.66Z"/>
  <path class="cls-2" d="M472.68,83.72c-3.3-2.04-8.36-3.37-9.52-6.26-2-5,4.36-12.65,9.94-13.8,1.02-.21,2.11-.5,3.1-.34,4.37.72,10.91-2.52,11.73,5.24.89,8.46-3.79,13.38-11.88,13.46-.78,0-1.57,0-2.35,0-.34.57-.68,1.13-1.02,1.7Z"/>
</svg>